<svg width="384" height="405" viewBox="0 0 384 405" fill="none" xmlns="http://www.w3.org/2000/svg">
<path d="M384 0H0V405H384V0Z" fill="#FFCB05"/>
<path d="M371.4 211.47C371.4 252.42 290.9 285.6 191.6 285.6C92.3 285.6 11.8 252.42 11.8 211.47C11.8 170.52 92.3 137.34 191.6 137.34C290.9 137.34 371.4 170.52 371.4 211.47Z" fill="#00678F"/>
<path d="M76.29 248.07L94.87 173.92H124.59V217.11L144.1 173.92H174.78L156.2 248.07H136.66L147.8 200.22L124.59 248.07H108.82V200.22L96.72 248.07H76.29Z" fill="white"/>
<path d="M180.91 249.01L183.72 238.68H205.08L202.27 249.01H180.91Z" fill="#ED1C24"/>
<path d="M228.84 248.07L247.42 173.92H268.78L278.09 213.35L288.31 173.92H307.82L289.24 248.07H268.78L258.56 207.71L248.34 248.07H228.84Z" fill="white"/>
<path d="M180.91 173.93L176.28 192.71H195.79L185.26 233.41H206.62L217.18 192.71H236.66L241.31 173.93H180.91Z" fill="#FFCB05"/>
</svg>
